<?xml version="1.0" standalone="no"?>
<!DOCTYPE svg PUBLIC "-//W3C//DTD SVG 20010904//EN"
 "http://www.w3.org/TR/2001/REC-SVG-20010904/DTD/svg10.dtd">
<svg version="1.0" xmlns="http://www.w3.org/2000/svg"
 width="1280.000000pt" height="841.000000pt" viewBox="0 0 1280.000000 841.000000"
 preserveAspectRatio="xMidYMid meet">
<metadata>
Created by potrace 1.15, written by Peter Selinger 2001-2017
</metadata>
<g transform="translate(0.000000,841.000000) scale(0.100000,-0.100000)"
fill="#000000" stroke="none">
<path d="M5522 8400 c-56 -8 -237 -56 -262 -69 -23 -12 -102 -113 -183 -233
-67 -100 -74 -107 -97 -100 -14 4 -144 7 -290 7 -306 0 -286 4 -525 -107 -123
-58 -165 -83 -238 -145 -49 -42 -94 -84 -100 -94 -10 -16 -24 -19 -82 -19 -38
0 -109 5 -157 10 -79 9 -105 7 -265 -20 -170 -29 -180 -32 -233 -70 -30 -22
-95 -64 -145 -94 -69 -43 -107 -74 -162 -138 -115 -133 -103 -126 -239 -142
-126 -14 -495 -110 -569 -147 -50 -25 -149 -104 -328 -262 -153 -135 -157
-138 -375 -292 -193 -137 -284 -214 -359 -307 -55 -68 -61 -80 -82 -173 -12
-55 -25 -142 -28 -194 l-6 -93 -38 -17 c-21 -9 -94 -68 -164 -131 -116 -106
-132 -126 -214 -257 -82 -131 -91 -149 -115 -250 -14 -60 -26 -132 -26 -159 1
-40 18 -150 47 -295 4 -20 -27 -88 -127 -282 -106 -206 -134 -270 -143 -324
-18 -104 -13 -272 11 -399 19 -94 31 -127 81 -220 32 -60 68 -125 80 -144 19
-31 21 -50 21 -173 0 -121 4 -153 32 -265 31 -125 33 -128 83 -177 29 -27 69
-72 90 -99 21 -27 54 -55 74 -63 20 -8 81 -35 135 -60 160 -73 290 -110 569
-163 291 -55 400 -81 586 -142 144 -46 410 -151 592 -233 105 -47 138 -57 214
-65 49 -5 96 -10 103 -10 9 0 12 -34 12 -136 0 -118 3 -146 27 -227 26 -86 33
-97 97 -164 l69 -73 58 0 59 0 27 -45 c154 -250 148 -244 310 -390 110 -99
170 -146 207 -161 28 -11 102 -46 164 -78 181 -91 506 -180 716 -196 211 -16
534 21 689 80 42 16 77 20 187 20 134 0 136 1 255 44 66 24 163 67 215 96 l95
52 45 -17 c98 -38 226 -65 353 -75 125 -11 138 -10 243 13 105 23 115 27 205
91 l94 68 55 -6 c121 -12 509 -27 565 -21 47 5 89 21 189 71 l128 66 177 8
c204 9 330 29 491 75 91 26 262 88 336 121 5 3 32 -12 59 -33 57 -43 134 -62
260 -63 l80 0 95 -145 95 -145 162 -84 162 -84 258 -32 c358 -44 364 -45 548
-138 193 -96 209 -101 450 -143 180 -31 196 -35 298 -86 l108 -54 197 27 196
27 149 68 c82 37 150 69 152 71 56 67 437 591 473 650 72 119 88 161 117 307
l25 130 -19 93 c-41 201 -38 232 44 502 34 112 51 196 74 359 62 438 64 466
46 691 -48 608 -120 947 -254 1201 -30 56 -50 109 -54 140 -4 28 -34 136 -67
240 -47 147 -73 211 -114 280 -73 123 -80 141 -121 332 -20 93 -41 179 -46
193 -17 39 -168 228 -223 277 -27 24 -64 51 -80 60 -17 8 -77 42 -133 75
l-101 60 -40 87 c-22 47 -61 138 -87 201 -26 63 -58 129 -70 145 -13 17 -93
114 -177 216 l-153 187 -276 184 c-264 176 -283 187 -429 244 -139 53 -156 63
-182 99 -16 22 -77 88 -134 147 l-105 106 -202 56 c-111 31 -274 78 -362 104
l-160 48 -190 135 c-276 197 -248 183 -430 219 -221 43 -657 141 -915 205
-118 30 -242 58 -274 64 -33 6 -180 11 -327 11 -260 0 -334 6 -279 21 15 4 -9
8 -60 8 -146 2 -274 19 -498 65 -345 71 -555 90 -720 66z m267 -101 c215 -26
310 -49 438 -105 166 -72 160 -71 629 -43 l222 13 138 -33 c77 -19 236 -57
354 -87 429 -106 779 -176 940 -189 133 -10 134 -11 232 -97 51 -44 116 -102
144 -128 l52 -48 -92 -26 c-50 -14 -180 -48 -288 -76 -359 -91 -314 -71 -508
-224 -192 -153 -259 -200 -267 -193 -3 3 -11 38 -19 78 -7 39 -15 73 -17 75
-2 2 -9 -42 -15 -98 -11 -90 -19 -117 -68 -223 l-56 -120 -167 -168 c-91 -92
-206 -198 -256 -235 -370 -273 -585 -434 -585 -438 0 -8 50 17 225 109 232
123 532 311 654 410 176 142 185 151 210 213 13 33 48 109 76 169 l52 110 129
81 c177 112 374 215 619 324 11 5 65 16 120 24 172 25 358 55 441 71 105 20
134 19 304 -10 80 -14 206 -35 280 -46 74 -11 149 -27 167 -34 30 -13 275
-216 268 -223 -1 -2 -29 8 -61 21 l-59 25 -124 -18 c-68 -10 -158 -22 -200
-26 -99 -9 -70 -19 79 -27 166 -9 245 -23 383 -71 103 -35 158 -63 337 -171
339 -205 436 -281 574 -449 75 -92 150 -191 170 -224 9 -14 11 -15 -137 56
-48 23 -91 41 -95 40 -4 0 -14 1 -22 4 -8 3 -62 18 -119 34 l-104 29 -46 122
c-26 67 -50 125 -54 129 -4 4 -7 -26 -7 -67 -1 -119 -22 -225 -63 -306 -36
-71 -57 -97 -57 -70 0 8 -67 75 -149 150 -165 152 -161 145 -195 332 -13 75
-20 89 -110 223 -53 78 -96 136 -96 128 0 -8 13 -50 29 -93 44 -121 62 -207
69 -330 4 -62 6 -113 5 -113 -1 0 -82 20 -180 44 -155 38 -212 47 -428 66
-261 23 -403 23 -653 -1 -62 -6 -115 -9 -118 -7 -2 3 -25 108 -50 234 -25 126
-50 234 -56 239 -6 7 -7 1 -4 -15 32 -143 23 -426 -18 -555 -45 -141 -80 -191
-182 -261 -104 -71 -322 -200 -547 -323 -154 -84 -161 -89 -236 -176 -97 -113
-107 -129 -116 -188 -18 -128 -107 -439 -177 -617 -77 -197 -212 -454 -272
-519 -17 -18 -75 -69 -128 -113 -54 -44 -98 -84 -98 -89 0 -24 -41 -26 -174
-9 -76 10 -142 22 -146 27 -5 4 29 112 75 238 45 127 85 241 89 255 7 24 7 24
-9 5 -9 -11 -48 -78 -88 -149 -88 -158 -219 -312 -300 -352 -29 -15 -117 -62
-197 -105 -123 -66 -181 -90 -390 -158 -158 -51 -267 -81 -307 -84 -61 -5 -64
-4 -89 26 -39 47 -32 121 21 206 40 64 40 65 173 129 148 72 165 88 251 231
66 109 126 254 219 528 81 240 93 262 307 598 17 28 51 81 75 118 23 37 41 69
39 71 -6 6 -167 -177 -229 -259 -30 -41 -74 -106 -97 -144 -62 -104 -235 -473
-305 -651 -34 -85 -77 -179 -96 -208 -35 -54 -111 -115 -207 -166 -27 -14 -93
-59 -145 -99 -80 -61 -102 -85 -145 -153 -27 -45 -73 -108 -101 -140 l-52 -59
-80 -3 -80 -4 -47 58 c-26 33 -53 74 -61 92 -31 69 -54 221 -54 349 0 123 1
127 37 207 20 44 55 106 78 136 168 222 202 276 240 380 71 196 75 213 75 363
l0 139 92 154 c75 126 106 168 172 232 l81 78 115 29 c63 15 136 28 163 29 26
0 47 3 47 7 0 4 21 14 48 22 l47 15 -43 1 c-36 1 -43 4 -38 19 3 9 21 82 42
162 67 264 111 367 254 595 l81 130 -149 -149 -149 -148 -97 -193 c-93 -187
-104 -216 -128 -356 l-12 -66 -65 -10 c-171 -28 -314 -124 -476 -323 -21 -25
-39 -47 -41 -49 -1 -2 -27 19 -56 47 -51 48 -61 53 -233 107 -196 62 -348 117
-408 147 -21 10 -64 46 -95 78 -78 80 -223 200 -247 205 -90 16 -298 45 -327
45 -31 0 -55 -14 -148 -87 -62 -47 -115 -96 -119 -107 -10 -27 -34 -287 -27
-293 3 -3 17 35 32 83 48 161 45 157 155 224 55 34 115 64 133 67 35 5 223
-13 257 -25 23 -9 148 -164 239 -299 l70 -101 147 -4 148 -4 104 -52 c162 -83
234 -165 261 -297 21 -101 -6 -295 -67 -480 -13 -41 -134 -242 -253 -420 -17
-26 -31 -67 -40 -120 -7 -44 -19 -109 -25 -145 -11 -62 -10 -72 23 -190 28
-105 35 -147 39 -266 l5 -141 -37 -42 c-25 -27 -51 -44 -79 -51 -22 -6 -62
-18 -88 -27 -42 -15 -61 -15 -170 -4 -140 14 -113 0 -320 171 -115 95 -139
122 -229 246 -120 166 -118 163 -168 306 -21 62 -55 159 -76 216 -51 144 -62
243 -44 405 8 70 12 127 9 127 -3 0 -33 -56 -68 -125 -70 -142 -64 -138 -172
-105 -99 30 -104 23 -13 -20 91 -43 103 -58 108 -141 2 -48 57 -172 235 -530
99 -199 91 -188 350 -477 198 -221 206 -232 215 -289 5 -37 2 -56 -16 -95 -19
-41 -28 -50 -63 -59 -50 -14 -173 -13 -244 0 -56 11 -87 29 -287 171 -160 113
-251 167 -332 197 -54 19 -90 24 -255 29 -174 6 -203 4 -298 -16 -103 -21
-135 -35 -195 -85 l-30 -25 40 6 c22 4 74 15 117 25 52 13 112 19 190 19 99 0
131 -5 264 -40 208 -54 250 -74 345 -167 72 -69 79 -80 79 -115 0 -95 -112
-195 -263 -235 -83 -23 -283 -22 -392 1 -187 40 -431 142 -452 189 -6 12 -45
68 -86 125 -84 114 -112 177 -214 480 -44 133 -61 172 -73 169 -123 -36 -184
-47 -254 -47 l-81 0 -85 61 c-126 89 -124 87 -164 240 -35 130 -36 142 -36
310 0 167 1 179 29 260 62 181 153 415 169 433 9 10 76 72 148 137 144 130
133 124 317 153 155 25 184 22 356 -37 l155 -52 48 -62 49 -62 -45 -78 c-31
-54 -67 -147 -118 -305 l-73 -227 -135 -47 c-212 -73 -212 -73 -24 -74 l161 0
11 -32 c61 -181 99 -260 134 -286 10 -8 44 -36 76 -64 65 -57 114 -83 299
-161 138 -58 393 -149 453 -162 l35 -7 -50 52 c-76 78 -220 169 -436 274 -107
52 -207 103 -222 114 -19 13 -42 49 -68 108 l-39 89 23 165 c22 153 29 177 86
320 83 209 93 225 176 282 135 93 108 88 427 88 295 0 316 -3 412 -43 158 -67
190 -118 311 -497 70 -220 121 -317 221 -417 46 -46 87 -83 93 -83 6 0 -14 36
-45 81 -109 160 -180 340 -209 529 -9 58 -20 130 -25 161 -4 32 -31 109 -60
173 -101 230 -102 234 -103 394 0 78 -3 142 -6 142 -3 0 -16 -37 -29 -81 -25
-93 -95 -249 -111 -249 -6 0 -95 12 -198 26 -161 22 -211 25 -348 21 -186 -7
-291 -21 -357 -49 l-48 -20 -61 48 c-33 27 -70 56 -80 64 -19 14 -19 20 -8
110 13 107 7 190 -20 300 -19 73 -19 74 -20 30 -4 -129 -41 -243 -103 -322
-27 -35 -34 -38 -78 -38 -42 0 -297 32 -356 45 -19 4 -21 10 -17 57 11 139 59
254 154 373 74 91 189 188 404 337 184 128 291 208 281 208 -4 0 -106 -45
-226 -101 -235 -108 -229 -105 -469 -314 -92 -81 -185 -192 -264 -315 -16 -25
-29 -96 -43 -241 l-5 -57 -47 -7 c-26 -4 -60 -13 -77 -19 -37 -16 -242 -178
-264 -209 -9 -12 -53 -80 -99 -151 -79 -123 -89 -147 -116 -269 -7 -31 15 -31
-226 2 l-115 16 -19 55 c-16 48 -17 64 -7 125 15 92 61 183 124 248 29 29 115
100 192 157 164 121 299 249 396 376 64 84 80 114 62 114 -5 0 -14 4 -21 9
-17 10 5 57 85 179 99 153 236 275 543 484 l126 85 124 17 c204 30 219 32 226
38 3 4 36 60 72 126 64 115 72 125 187 227 150 133 371 273 443 281 26 3 154
11 285 18 l237 13 113 110 c80 79 124 113 152 122 22 7 85 34 140 59 l100 47
230 3 231 3 222 -80 223 -80 132 63 c200 97 233 106 436 116 104 6 201 6 245
0 39 -5 123 -9 186 -10 97 0 139 6 270 36 85 20 178 41 207 48 28 6 55 15 59
19 4 4 -82 7 -192 7 -148 0 -222 5 -289 17 -125 25 -597 25 -665 1 -25 -9
-125 -46 -223 -82 -98 -36 -186 -66 -195 -66 -9 0 -46 11 -82 24 -36 14 -74
28 -85 32 -17 6 -17 8 -4 11 9 2 34 30 55 61 54 82 147 202 180 234 22 20 55
33 134 52 58 13 107 25 109 25 3 1 79 -8 170 -20z m-3524 -1408 c-99 -49 -235
-124 -302 -167 -111 -72 -129 -88 -196 -174 -152 -194 -209 -290 -337 -562
-12 -27 -35 -57 -51 -69 -25 -18 -404 -149 -430 -149 -5 0 -9 30 -9 66 0 57 6
78 44 158 40 85 50 98 114 147 39 30 217 182 397 339 l326 285 215 108 216
107 96 0 97 -1 -180 -88z m7135 -406 c58 -8 165 -24 238 -35 74 -11 146 -20
161 -20 33 0 347 -143 380 -173 13 -12 71 -85 128 -162 97 -129 103 -140 86
-152 -10 -8 -74 -44 -142 -81 -73 -39 -127 -75 -132 -87 -4 -11 -24 -72 -43
-135 -32 -103 -42 -122 -92 -180 -76 -89 -168 -222 -260 -375 l-77 -129 6 -76
c3 -41 11 -91 16 -110 10 -33 129 -196 137 -188 2 3 -7 40 -21 84 -14 43 -25
90 -25 103 0 13 20 77 45 142 25 65 45 127 45 138 0 25 125 211 226 338 92
114 132 177 145 226 8 32 25 49 107 109 97 73 137 91 271 123 l72 18 67 -46
c37 -26 101 -62 144 -81 77 -35 289 -191 308 -227 6 -10 19 -62 30 -115 11
-54 22 -99 24 -102 3 -2 -13 -56 -35 -120 -27 -79 -67 -164 -122 -260 -71
-125 -94 -155 -173 -231 -98 -96 -126 -110 -259 -132 -67 -11 -73 -14 -137
-77 l-68 -66 0 -83 0 -84 74 -33 c120 -55 118 -55 101 -5 -21 60 -19 104 11
181 l27 67 111 37 c61 20 116 39 122 43 7 3 73 82 147 175 154 190 347 416
358 416 3 0 53 -34 110 -76 57 -42 121 -87 143 -101 43 -28 71 -81 152 -293
53 -137 52 -127 36 -348 l-9 -113 -39 -40 c-73 -75 -241 -145 -317 -134 -55 9
-52 6 -115 92 -85 115 -153 172 -268 222 -54 24 -123 56 -151 72 -29 16 -56
29 -61 29 -8 0 -38 -128 -31 -134 2 -2 49 -13 103 -25 55 -12 111 -27 125 -34
31 -15 179 -184 187 -214 14 -54 -14 -171 -75 -314 l-61 -144 -136 -148 c-75
-81 -135 -149 -133 -151 2 -2 78 42 169 98 l165 101 95 188 95 187 205 0 205
1 33 44 33 44 34 -20 c18 -11 54 -42 80 -70 42 -45 46 -53 41 -87 -25 -172
-14 -373 30 -550 25 -96 25 -108 16 -209 -11 -105 -11 -107 -63 -184 -38 -55
-72 -92 -119 -126 -109 -79 -230 -176 -226 -180 3 -4 227 119 298 164 21 12
39 23 42 23 2 0 19 -46 38 -102 32 -100 33 -107 30 -253 -3 -184 -22 -304 -72
-456 -90 -273 -288 -576 -425 -653 l-44 -24 -73 18 c-40 10 -101 24 -136 31
-62 12 -66 14 -255 181 -106 94 -219 194 -253 224 l-61 54 -150 0 -151 0 -22
67 -22 68 51 204 c28 112 63 232 79 265 25 52 239 406 287 473 15 21 96 63
479 248 l169 81 63 214 c35 118 64 223 64 233 0 15 -7 18 -37 15 l-38 -3 -92
-205 c-56 -124 -101 -212 -115 -223 -13 -9 -117 -57 -232 -107 -229 -99 -328
-150 -413 -214 l-57 -43 -63 50 c-35 27 -65 48 -67 46 -2 -2 7 -35 20 -74 13
-38 21 -71 18 -74 -5 -5 -154 9 -409 39 -308 36 -441 44 -790 44 -416 0 -681
-17 -1060 -66 -88 -11 -216 -21 -285 -21 -148 -1 -196 14 -319 97 -85 59 -82
51 -64 181 8 63 15 78 72 158 35 48 62 90 60 92 -3 2 -52 -15 -109 -39 l-105
-42 -39 -141 -39 -142 -46 -6 c-25 -3 -154 -17 -286 -30 -132 -14 -267 -29
-300 -35 -42 -7 -131 -7 -290 1 l-230 11 -165 -40 c-273 -67 -273 -67 -411
-54 -136 14 -159 22 -279 105 -72 50 -76 55 -97 117 -17 51 -22 90 -22 180 -2
177 -5 181 -62 69 -29 -57 -48 -108 -48 -129 -1 -56 46 -228 83 -307 l35 -73
-67 -19 c-76 -23 -368 -101 -577 -156 -77 -20 -219 -67 -315 -105 -96 -37
-214 -82 -262 -99 -120 -42 -133 -49 -288 -166 -74 -56 -144 -106 -155 -112
-11 -6 -57 -16 -103 -24 -78 -12 -89 -11 -180 11 -53 12 -103 25 -111 28 -12
4 -13 -4 -8 -47 3 -28 9 -56 12 -61 3 -5 48 -32 99 -59 65 -35 105 -51 131
-51 28 0 36 -4 32 -14 -3 -8 -44 -74 -91 -147 -89 -138 -70 -129 43 20 l56 75
5 -140 5 -139 32 120 c18 66 35 132 38 146 4 15 34 57 68 95 33 38 94 109 135
158 l75 90 136 64 c552 259 1059 382 1671 407 85 4 178 13 205 20 131 36 370
69 600 85 83 5 202 16 265 25 134 17 464 51 599 61 l93 7 137 -67 c115 -56
151 -68 231 -81 52 -8 124 -20 160 -25 58 -10 94 -6 325 29 143 22 301 45 350
50 50 6 113 15 140 20 106 20 536 12 990 -20 151 -10 722 -82 732 -92 2 -3 -3
-22 -12 -43 -10 -22 -32 -83 -51 -137 -40 -118 -97 -228 -229 -442 -233 -379
-258 -412 -422 -569 -96 -92 -175 -157 -215 -180 -180 -100 -410 -159 -540
-136 -127 22 -118 17 -117 63 0 23 6 88 12 144 7 57 10 103 7 103 -3 0 -59
-66 -124 -146 -117 -141 -121 -145 -175 -160 -31 -8 -123 -35 -206 -59 -205
-61 -217 -63 -405 -76 -130 -9 -180 -17 -235 -36 -304 -109 -350 -123 -421
-123 -152 0 -274 18 -396 61 l-117 41 -128 -87 c-70 -48 -150 -98 -177 -112
-109 -55 -420 -54 -577 3 -83 30 -84 30 -259 -27 -148 -49 -390 -99 -479 -99
-128 0 -374 47 -478 91 -26 11 -92 48 -146 81 -54 33 -100 58 -102 56 -2 -2
69 -61 158 -131 230 -180 235 -185 217 -191 -66 -23 -262 -66 -304 -66 -78 0
-183 21 -509 103 -273 69 -305 79 -380 122 -159 92 -305 206 -404 315 -41 45
-153 216 -153 233 0 5 17 28 37 52 21 23 53 63 71 89 l33 46 -104 0 c-96 0
-108 2 -166 31 -54 27 -69 41 -107 101 -42 65 -46 78 -61 186 -15 107 -14 121
2 196 43 202 59 238 198 461 148 237 161 251 382 423 83 63 202 157 265 206
379 299 765 494 1445 731 163 57 292 94 500 142 417 96 748 159 955 183 164
18 544 64 625 74 17 2 188 -3 380 -11 l350 -15 280 -54 c227 -45 328 -70 535
-135 414 -131 685 -236 979 -381 176 -87 228 -123 474 -328 88 -72 161 -129
163 -127 12 11 -299 311 -395 381 -169 125 -417 261 -658 362 -51 21 -93 41
-93 44 0 3 21 18 48 35 60 38 215 159 313 244 l76 66 26 105 c14 57 24 106 23
108 -2 2 -24 -24 -50 -56 -29 -38 -81 -86 -143 -130 -89 -64 -108 -73 -198
-96 -299 -75 -425 -87 -735 -67 -198 13 -513 45 -595 61 -27 6 -73 12 -101 15
-48 4 -217 55 -231 69 -3 3 49 32 116 63 l122 58 103 115 c57 63 102 117 100
119 -1 2 -39 -22 -82 -52 -100 -70 -411 -226 -518 -260 -83 -26 -310 -77 -344
-77 -18 0 -13 13 39 119 127 253 230 533 291 791 50 214 75 288 149 437 l69
140 108 89 c59 49 130 108 157 132 28 23 54 42 59 42 4 0 86 33 182 74 160 68
185 82 293 166 82 64 143 122 199 189 47 56 94 102 110 108 16 6 119 21 229
33 110 12 202 24 204 26 3 2 12 2 20 0 9 -3 63 -12 121 -21z m1466 -279 c120
-40 180 -70 259 -128 85 -63 104 -89 223 -306 58 -106 107 -190 110 -188 3 4
-49 201 -65 242 -12 33 17 8 82 -68 60 -71 87 -118 198 -342 l128 -261 -17
-62 c-9 -35 -21 -63 -27 -63 -5 0 -37 22 -71 49 -33 26 -107 72 -163 100 -56
29 -105 56 -108 60 -2 5 -12 55 -20 111 -15 99 -18 107 -91 229 l-76 126 -146
88 c-81 48 -172 103 -203 123 -50 31 -67 36 -145 42 -86 7 -89 8 -111 41 -13
19 -23 43 -23 55 0 12 32 53 82 103 46 46 83 83 83 83 1 0 46 -15 101 -34z
m-9716 -485 c0 -5 -59 -62 -132 -127 -173 -156 -191 -175 -229 -248 -17 -33
-46 -86 -64 -116 -32 -54 -32 -57 -23 -120 6 -36 18 -91 28 -122 17 -55 17
-57 -1 -74 -10 -9 -25 -38 -34 -65 -26 -76 -68 -100 -201 -115 l-61 -6 -17 36
c-23 49 -36 133 -36 240 l0 89 62 114 c35 63 75 128 91 144 15 17 59 68 97
114 39 47 85 95 103 108 48 37 180 93 287 122 52 15 100 28 105 30 18 6 25 5
25 -4z m10660 -204 l104 -73 63 -119 c103 -199 111 -233 164 -710 41 -371 41
-446 0 -600 -17 -66 -31 -128 -31 -137 0 -42 -19 -8 -76 138 l-61 155 13 62
c17 80 17 119 0 203 -8 38 -22 110 -31 159 -9 50 -30 133 -48 186 l-32 96 29
64 c24 52 30 78 30 134 0 75 -16 116 -103 258 -62 101 -143 257 -134 257 4 -1
55 -33 113 -73z m-10682 -681 c41 -1 42 -2 42 -37 0 -19 -5 -95 -11 -167 -9
-113 -8 -145 6 -212 66 -322 206 -511 425 -574 30 -9 106 -22 168 -28 l114
-13 74 -185 c41 -102 81 -190 89 -196 8 -6 27 -40 44 -76 16 -36 54 -93 86
-129 32 -35 65 -75 74 -88 21 -32 288 -206 338 -221 57 -17 449 -24 576 -11
l108 11 73 59 c39 32 77 65 84 74 7 8 22 54 34 103 11 49 23 91 24 93 5 6 74
-32 74 -41 0 -30 -35 -163 -54 -205 -20 -43 -38 -62 -112 -115 -49 -35 -114
-87 -145 -115 -53 -51 -58 -53 -110 -53 -69 0 -260 24 -362 45 -254 53 -478
164 -651 324 -92 86 -121 100 -421 206 -411 144 -531 199 -591 269 -60 69
-151 211 -173 269 -34 92 -44 174 -32 261 6 43 11 89 11 104 l0 26 -39 -38
c-33 -32 -41 -49 -50 -101 -21 -120 -16 -163 36 -277 43 -94 111 -203 178
-285 33 -41 231 -173 315 -211 36 -17 144 -53 240 -82 96 -29 193 -61 215 -71
23 -11 72 -51 110 -90 l70 -71 -140 5 c-123 3 -149 7 -215 32 -41 16 -169 59
-285 96 -423 136 -527 188 -686 350 -85 87 -86 88 -97 158 -27 162 -2 295 88
473 67 131 79 188 111 528 7 69 16 135 20 148 5 14 30 33 61 48 50 24 59 25
148 18 52 -4 114 -8 138 -8z m-505 -373 c-5 -163 -7 -182 -29 -223 -83 -156
-120 -234 -150 -321 -33 -94 -34 -104 -34 -244 l0 -145 -47 -58 c-25 -31 -57
-81 -71 -110 l-24 -54 -43 78 c-24 44 -48 97 -53 119 -21 81 -34 255 -29 371
4 107 9 131 47 238 42 120 93 228 172 366 l43 75 95 42 c52 24 103 43 112 43
15 0 16 -15 11 -177z m11664 -55 c-3 -8 -6 -5 -6 6 -1 11 2 17 5 13 3 -3 4
-12 1 -19z m37 -202 c18 -164 16 -230 -15 -736 -18 -286 -19 -346 -8 -505 19
-288 1 -475 -66 -675 -50 -146 -54 -143 -48 40 5 160 4 167 -22 245 -25 73
-27 89 -21 175 3 52 15 165 27 250 l22 156 -26 199 c-46 345 -47 314 12 435
82 172 103 258 109 439 2 90 8 148 13 140 4 -9 15 -82 23 -163z m196 -401 c47
-133 77 -270 90 -402 6 -65 17 -170 25 -233 31 -249 37 -353 32 -621 l-4 -274
-46 -220 c-61 -288 -56 -269 -70 -257 -7 6 -30 47 -52 91 -21 45 -43 81 -47
81 -4 0 -8 -113 -8 -250 l0 -250 -49 -98 c-27 -53 -95 -180 -150 -282 -56
-101 -101 -187 -101 -190 0 -6 7 2 167 197 161 196 166 202 159 180 -3 -9 -15
-93 -27 -185 -20 -147 -26 -171 -49 -202 -15 -19 -79 -107 -143 -196 -186
-258 -335 -403 -522 -508 l-82 -46 -144 0 -144 0 150 74 c83 41 166 87 186
102 36 29 231 265 224 272 -2 2 -83 -55 -182 -127 -196 -144 -181 -138 -447
-202 -186 -45 -177 -45 -386 -7 -103 18 -131 28 -271 98 -97 48 -209 94 -300
123 -134 43 -155 46 -304 55 l-160 10 -137 72 c-166 87 -302 193 -335 260 -12
25 -22 50 -22 55 0 6 57 40 128 76 l128 67 99 -75 c54 -42 120 -95 146 -119
26 -24 54 -44 62 -44 8 0 68 -20 133 -43 90 -33 144 -47 227 -56 127 -14 139
-20 301 -133 182 -128 170 -124 383 -138 146 -10 160 -9 285 15 73 14 142 27
154 30 12 3 54 43 92 89 l70 84 16 109 c9 59 20 126 25 148 5 22 10 67 10 101
l0 61 39 18 c22 10 49 27 59 39 49 53 453 728 542 906 92 184 116 254 153 464
19 108 21 147 17 361 -12 620 -3 980 27 1029 8 12 16 -5 53 -109z m-11893
-559 c97 -101 119 -116 222 -151 36 -12 109 -42 161 -65 138 -62 213 -86 420
-136 303 -73 268 -70 484 -44 l191 22 270 -133 270 -134 97 -145 c54 -80 98
-150 98 -156 0 -17 -78 -45 -140 -51 -30 -2 -91 2 -135 10 -76 13 -85 17 -185
94 -125 95 -273 194 -351 233 -57 29 -267 88 -478 135 -174 38 -369 63 -546
70 -192 8 -254 23 -376 95 -94 55 -102 66 -145 203 -15 50 -16 65 -6 115 20
96 32 132 45 132 6 0 53 -42 104 -94z m-175 -372 c54 -45 118 -85 197 -123
l116 -56 215 -6 c178 -5 247 -12 400 -39 222 -38 556 -121 625 -155 28 -14
136 -88 240 -166 332 -246 365 -264 456 -250 30 5 56 7 58 5 6 -5 -16 -115
-29 -149 -7 -19 -18 -24 -72 -29 -60 -7 -71 -4 -198 44 -74 29 -232 94 -351
145 -351 151 -486 188 -926 250 -219 32 -259 40 -409 91 -161 53 -171 58 -264
130 l-98 75 -41 104 c-39 98 -41 108 -40 206 l1 104 20 -57 c17 -50 29 -66
100 -124z m9813 -1185 c11 -62 19 -67 165 -89 74 -11 191 -34 260 -50 l125
-29 65 -68 c36 -38 112 -119 170 -181 100 -107 107 -112 145 -112 56 0 227
-38 240 -53 6 -6 26 -47 44 -89 l33 -77 -23 -128 c-12 -70 -25 -136 -29 -147
-4 -12 -41 -33 -101 -58 -83 -35 -111 -41 -241 -54 -166 -16 -149 -20 -333 64
-108 49 -111 51 -190 143 -44 52 -90 107 -101 124 l-22 29 -135 -27 c-129 -25
-138 -26 -194 -11 -181 47 -207 61 -325 181 l-87 88 131 145 c158 176 318 366
354 420 30 45 39 41 49 -21z"/>
<path d="M7057 7744 c-66 -16 -100 -32 -180 -86 -32 -22 -72 -42 -90 -45 -18
-2 -79 4 -137 16 -194 37 -353 54 -520 55 -158 1 -167 0 -220 -25 -107 -50
-219 -82 -264 -75 -279 44 -392 46 -477 11 -33 -14 -99 -35 -147 -46 -48 -12
-112 -33 -142 -48 -130 -65 -460 -248 -561 -311 -209 -131 -366 -168 -814
-194 l-210 -11 150 -38 c83 -20 165 -37 183 -37 18 0 115 11 215 25 196 27
155 14 566 177 41 16 135 67 208 114 298 190 493 247 765 223 116 -10 131 -15
189 -60 20 -16 40 -29 44 -29 3 0 104 48 225 106 l218 105 163 -11 c90 -7 180
-17 199 -24 50 -17 272 -151 300 -181 38 -40 91 -173 97 -240 5 -61 -12 -131
-65 -262 -12 -29 -18 -53 -14 -53 4 0 37 25 74 56 64 54 67 58 102 159 33 97
36 113 36 222 l0 118 77 93 c65 78 83 94 117 102 23 6 91 24 151 40 61 17 128
30 150 30 36 0 273 -29 375 -46 56 -9 25 10 -87 55 -283 112 -521 153 -676
115z"/>
<path d="M5376 7068 c-54 -61 -99 -151 -122 -239 -13 -50 -15 -89 -10 -182 9
-171 18 -199 88 -269 33 -33 61 -58 63 -56 3 2 -7 44 -20 93 -39 140 -32 280
29 588 12 64 22 117 20 117 -1 0 -23 -23 -48 -52z"/>
<path d="M9710 5934 c-191 -51 -303 -99 -431 -187 -166 -113 -261 -151 -498
-201 l-123 -26 -107 -87 c-58 -48 -137 -112 -174 -142 -58 -48 -74 -69 -116
-151 -57 -111 -68 -144 -76 -225 l-7 -60 107 160 c102 152 113 164 214 245
154 122 250 190 271 190 10 0 87 13 172 30 183 36 218 36 413 6 83 -13 152
-22 154 -20 2 1 -51 30 -117 63 -66 33 -123 64 -126 69 -8 13 129 112 312 224
146 90 204 128 192 127 -3 -1 -30 -7 -60 -15z"/>
<path d="M9940 4004 c0 -71 5 -146 11 -167 10 -39 125 -217 140 -217 4 0 75
-29 157 -64 139 -59 157 -64 268 -76 65 -7 127 -11 137 -9 9 2 57 38 106 79
88 74 90 77 140 188 57 124 64 154 25 96 -15 -21 -43 -59 -63 -83 -20 -25 -44
-56 -53 -69 -15 -23 -134 -79 -204 -96 -13 -4 -95 6 -181 20 l-158 27 -112 76
c-130 88 -129 86 -174 285 -16 71 -32 132 -34 135 -3 2 -5 -54 -5 -125z"/>
<path d="M8474 3599 c-50 -4 -145 -17 -210 -28 l-118 -21 -56 -55 c-46 -48
-51 -55 -30 -51 14 3 113 15 220 27 185 21 209 21 492 10 l298 -12 153 -50
c156 -52 668 -234 759 -270 119 -47 37 -2 -284 156 -337 165 -347 169 -553
228 -115 33 -230 63 -255 68 -56 10 -295 9 -416 -2z"/>
<path d="M6348 2295 c5 -11 51 -74 101 -140 70 -93 87 -123 78 -132 -7 -6 -66
-43 -133 -82 -107 -61 -134 -72 -235 -95 -255 -56 -469 -71 -612 -41 -40 8
-146 37 -236 65 -90 27 -166 48 -168 46 -11 -11 177 -132 242 -156 161 -60
184 -63 427 -57 173 4 245 10 320 26 125 27 278 80 403 141 l100 48 38 -19
c62 -32 184 -74 354 -123 l160 -46 212 0 211 0 109 54 108 55 159 -34 c87 -19
202 -43 254 -55 189 -41 493 -38 834 10 77 11 141 19 142 17 2 -1 9 -47 16
-102 l14 -100 54 105 55 105 133 80 c107 65 470 337 488 367 7 11 -120 -38
-236 -92 -109 -50 -339 -126 -640 -211 -154 -43 -195 -51 -335 -61 -263 -20
-357 -17 -570 20 -212 36 -189 25 -360 167 -161 132 -149 124 -141 95 4 -14
24 -69 44 -123 30 -82 34 -100 22 -107 -35 -22 -242 -71 -301 -72 -77 -1 -275
19 -344 34 -27 6 -129 42 -225 80 -187 74 -166 61 -519 327 -29 22 -33 23 -23
6z"/>
<path d="M4970 1564 c-110 -10 -199 -26 -365 -67 -213 -52 -223 -56 -325 -116
-124 -74 -198 -126 -302 -212 -42 -35 -119 -90 -172 -121 l-95 -58 -118 0
c-128 0 -131 -5 -26 -41 62 -20 108 -19 239 7 12 2 77 41 145 86 256 170 486
260 727 284 l57 6 90 -71 c107 -85 172 -120 292 -161 154 -51 299 -71 560 -77
335 -8 554 9 703 53 63 19 126 39 140 44 14 5 72 25 130 46 216 75 691 273
715 297 7 7 3 8 -10 3 -11 -4 -56 -19 -100 -33 -44 -13 -170 -54 -280 -90
-384 -125 -579 -163 -935 -184 -318 -18 -498 -1 -716 69 -115 37 -334 143
-334 162 0 5 21 22 48 37 64 37 182 112 211 135 24 18 23 18 -55 17 -44 -1
-144 -8 -224 -15z"/>
</g>
</svg>
